<svg width="204" height="70" viewBox="0 0 204 70" fill="none" xmlns="http://www.w3.org/2000/svg">
<path d="M1.60658 70C-5.42904 33.25 11.1039 18.2 42.1499 0C23.2988 26.9708 27.4778 42.4639 31.0706 70H1.60658Z" fill="#FFC700"/>
<path d="M39.2455 70C32.5619 33.95 35.3792 24.521 42.1499 8.59281C42.1499 32.2754 44.3042 47.3653 60 70H39.2455Z" fill="#FFC700"/>
<path d="M41.8418 0.209473C27.538 21.713 24.7156 36.7092 31.2487 69.9999H17.8366C11.8744 42.4905 15.6504 24.7587 41.8418 0.209473Z" fill="#F19601"/>
<path d="M79.9704 42H74.0386L83.077 15.8182H90.2105L99.236 42H93.3042L86.746 21.8011H86.5414L79.9704 42ZM79.5997 31.7088H93.611V36.0298H79.5997V31.7088ZM102.387 42V15.8182H112.717C114.694 15.8182 116.382 16.1719 117.779 16.8793C119.186 17.5781 120.255 18.571 120.988 19.858C121.73 21.1364 122.1 22.6406 122.1 24.3707C122.1 26.1094 121.725 27.6051 120.975 28.858C120.225 30.1023 119.139 31.0568 117.715 31.7216C116.301 32.3864 114.588 32.7188 112.576 32.7188H105.66V28.2699H111.681C112.738 28.2699 113.616 28.125 114.315 27.8352C115.014 27.5455 115.534 27.1108 115.875 26.5312C116.224 25.9517 116.399 25.2315 116.399 24.3707C116.399 23.5014 116.224 22.7685 115.875 22.1719C115.534 21.5753 115.009 21.1236 114.302 20.8168C113.603 20.5014 112.721 20.3438 111.656 20.3438H107.923V42H102.387ZM116.527 30.0852L123.034 42H116.923L110.556 30.0852H116.527ZM140.215 23.348C140.113 22.3168 139.674 21.5156 138.899 20.9446C138.123 20.3736 137.071 20.0881 135.741 20.0881C134.838 20.0881 134.075 20.2159 133.453 20.4716C132.831 20.7188 132.353 21.0639 132.021 21.5071C131.697 21.9503 131.535 22.4531 131.535 23.0156C131.518 23.4844 131.616 23.8935 131.829 24.2429C132.051 24.5923 132.353 24.8949 132.737 25.1506C133.12 25.3977 133.563 25.6151 134.066 25.8026C134.569 25.9815 135.106 26.1349 135.677 26.2628L138.029 26.8253C139.171 27.081 140.22 27.4219 141.174 27.848C142.129 28.2741 142.956 28.7983 143.654 29.4205C144.353 30.0426 144.894 30.7756 145.278 31.6193C145.67 32.4631 145.87 33.4304 145.879 34.5213C145.87 36.1236 145.461 37.5128 144.652 38.6889C143.85 39.8565 142.691 40.7642 141.174 41.4119C139.666 42.0511 137.846 42.3707 135.715 42.3707C133.602 42.3707 131.761 42.0469 130.193 41.3991C128.633 40.7514 127.414 39.7926 126.536 38.5227C125.667 37.2443 125.211 35.6634 125.169 33.7798H130.525C130.585 34.6577 130.836 35.3906 131.279 35.9787C131.731 36.5582 132.332 36.9972 133.082 37.2955C133.84 37.5852 134.697 37.7301 135.652 37.7301C136.589 37.7301 137.403 37.5937 138.093 37.321C138.792 37.0483 139.333 36.669 139.717 36.1832C140.1 35.6974 140.292 35.1392 140.292 34.5085C140.292 33.9205 140.117 33.4261 139.768 33.0256C139.427 32.625 138.924 32.2841 138.259 32.0028C137.603 31.7216 136.798 31.4659 135.843 31.2358L132.992 30.5199C130.785 29.983 129.042 29.1435 127.764 28.0014C126.485 26.8594 125.85 25.321 125.859 23.3864C125.85 21.8011 126.272 20.4162 127.125 19.2315C127.985 18.0469 129.166 17.1222 130.666 16.4574C132.166 15.7926 133.87 15.4602 135.779 15.4602C137.723 15.4602 139.419 15.7926 140.867 16.4574C142.325 17.1222 143.458 18.0469 144.268 19.2315C145.078 20.4162 145.495 21.7884 145.521 23.348H140.215ZM154.946 30.6477V42H149.5V15.8182H154.793V25.8281H155.023C155.466 24.669 156.182 23.7614 157.17 23.1051C158.159 22.4403 159.399 22.108 160.891 22.108C162.254 22.108 163.443 22.4062 164.457 23.0028C165.48 23.5909 166.273 24.4389 166.835 25.5469C167.406 26.6463 167.687 27.9631 167.679 29.4972V42H162.233V30.4688C162.241 29.2585 161.935 28.3168 161.312 27.6435C160.699 26.9702 159.838 26.6335 158.73 26.6335C157.989 26.6335 157.332 26.7912 156.761 27.1065C156.199 27.4219 155.756 27.8821 155.432 28.4872C155.116 29.0838 154.954 29.804 154.946 30.6477ZM171.965 42V22.3636H177.411V42H171.965ZM174.701 19.8324C173.891 19.8324 173.196 19.5639 172.617 19.027C172.046 18.4815 171.76 17.8295 171.76 17.071C171.76 16.321 172.046 15.6776 172.617 15.1406C173.196 14.5952 173.891 14.3224 174.701 14.3224C175.51 14.3224 176.201 14.5952 176.772 15.1406C177.351 15.6776 177.641 16.321 177.641 17.071C177.641 17.8295 177.351 18.4815 176.772 19.027C176.201 19.5639 175.51 19.8324 174.701 19.8324ZM181.773 49.3636V22.3636H187.143V25.6619H187.386C187.624 25.1335 187.969 24.5966 188.421 24.0511C188.881 23.4972 189.478 23.0369 190.211 22.6705C190.952 22.2955 191.873 22.108 192.972 22.108C194.404 22.108 195.725 22.483 196.935 23.233C198.145 23.9744 199.113 25.0952 199.837 26.5952C200.562 28.0866 200.924 29.9574 200.924 32.2074C200.924 34.3977 200.57 36.2472 199.863 37.7557C199.164 39.2557 198.209 40.3935 196.999 41.169C195.797 41.9361 194.451 42.3196 192.959 42.3196C191.903 42.3196 191.003 42.1449 190.262 41.7955C189.529 41.446 188.928 41.0071 188.459 40.4787C187.991 39.9418 187.633 39.4006 187.386 38.8551H187.219V49.3636H181.773ZM187.104 32.1818C187.104 33.3494 187.266 34.3679 187.59 35.2372C187.914 36.1065 188.383 36.7841 188.996 37.2699C189.61 37.7472 190.356 37.9858 191.234 37.9858C192.12 37.9858 192.87 37.7429 193.484 37.2571C194.097 36.7628 194.562 36.081 194.877 35.2116C195.201 34.3338 195.363 33.3239 195.363 32.1818C195.363 31.0483 195.205 30.0511 194.89 29.1903C194.574 28.3295 194.11 27.6562 193.496 27.1705C192.883 26.6847 192.128 26.4418 191.234 26.4418C190.347 26.4418 189.597 26.6761 188.984 27.1449C188.378 27.6136 187.914 28.2784 187.59 29.1392C187.266 30 187.104 31.0142 187.104 32.1818Z" fill="black"/>
<path d="M93.0677 61H91.42L93.9306 53.7273H95.9122L98.4193 61H96.7716L94.9498 55.3892H94.893L93.0677 61ZM92.9647 58.1413H96.8568V59.3416H92.9647V58.1413ZM102.764 58.6776V55.5455H104.277V61H102.824V60.0092H102.768C102.645 60.3288 102.44 60.5857 102.153 60.7798C101.869 60.974 101.522 61.071 101.113 61.071C100.748 61.071 100.427 60.9882 100.15 60.8224C99.8735 60.6567 99.6569 60.4212 99.5006 60.1158C99.3467 59.8104 99.2686 59.4446 99.2662 59.0185V55.5455H100.779V58.7486C100.781 59.0705 100.868 59.325 101.038 59.5121C101.209 59.6991 101.437 59.7926 101.724 59.7926C101.906 59.7926 102.076 59.7512 102.235 59.6683C102.394 59.5831 102.521 59.4576 102.619 59.2919C102.718 59.1262 102.766 58.9214 102.764 58.6776ZM107.944 63.1591C107.454 63.1591 107.034 63.0916 106.684 62.9567C106.336 62.8241 106.059 62.643 105.853 62.4134C105.647 62.1837 105.513 61.9257 105.451 61.6392L106.851 61.451C106.893 61.5599 106.961 61.6617 107.053 61.7564C107.145 61.8511 107.267 61.9268 107.419 61.9837C107.573 62.0429 107.76 62.0724 107.98 62.0724C108.309 62.0724 108.58 61.992 108.793 61.831C109.008 61.6723 109.116 61.406 109.116 61.032V60.0341H109.052C108.986 60.1856 108.887 60.3288 108.754 60.4638C108.621 60.5987 108.451 60.7088 108.243 60.794C108.034 60.8793 107.786 60.9219 107.497 60.9219C107.087 60.9219 106.714 60.8272 106.378 60.6378C106.044 60.446 105.778 60.1536 105.579 59.7607C105.383 59.3653 105.285 58.8658 105.285 58.2621C105.285 57.6442 105.385 57.1281 105.586 56.7138C105.788 56.2995 106.055 55.9893 106.389 55.7834C106.725 55.5774 107.093 55.4744 107.493 55.4744C107.799 55.4744 108.054 55.5265 108.26 55.6307C108.466 55.7325 108.632 55.8603 108.758 56.0142C108.885 56.1657 108.984 56.3149 109.052 56.4616H109.109V55.5455H110.611V61.0533C110.611 61.5173 110.498 61.9055 110.27 62.218C110.043 62.5305 109.728 62.7649 109.326 62.9212C108.926 63.0798 108.465 63.1591 107.944 63.1591ZM107.976 59.7855C108.22 59.7855 108.426 59.7251 108.594 59.6044C108.765 59.4813 108.895 59.3061 108.985 59.0788C109.077 58.8492 109.123 58.5746 109.123 58.255C109.123 57.9354 109.078 57.6584 108.988 57.424C108.898 57.1873 108.768 57.0038 108.598 56.8736C108.427 56.7434 108.22 56.6783 107.976 56.6783C107.728 56.6783 107.518 56.7457 107.348 56.8807C107.177 57.0133 107.048 57.1979 106.961 57.4347C106.873 57.6714 106.829 57.9448 106.829 58.255C106.829 58.5698 106.873 58.8421 106.961 59.0717C107.051 59.299 107.18 59.4754 107.348 59.6009C107.518 59.724 107.728 59.7855 107.976 59.7855ZM111.815 61V55.5455H113.257V56.5078H113.321C113.434 56.1882 113.624 55.9361 113.889 55.7514C114.154 55.5668 114.471 55.4744 114.841 55.4744C115.215 55.4744 115.533 55.5679 115.796 55.755C116.059 55.9396 116.234 56.1906 116.321 56.5078H116.378C116.49 56.1953 116.691 55.9455 116.982 55.7585C117.276 55.5691 117.622 55.4744 118.022 55.4744C118.531 55.4744 118.945 55.6366 119.262 55.9609C119.581 56.2829 119.741 56.7398 119.741 57.3317V61H118.232V57.63C118.232 57.3269 118.151 57.0997 117.99 56.9482C117.829 56.7966 117.628 56.7209 117.387 56.7209C117.112 56.7209 116.898 56.8085 116.744 56.9837C116.59 57.1565 116.513 57.3849 116.513 57.669V61H115.047V57.598C115.047 57.3305 114.97 57.1174 114.816 56.9588C114.664 56.8002 114.464 56.7209 114.216 56.7209C114.048 56.7209 113.896 56.7635 113.761 56.8487C113.629 56.9316 113.523 57.0488 113.445 57.2003C113.367 57.3494 113.328 57.5246 113.328 57.7259V61H111.815ZM123.422 61.1065C122.861 61.1065 122.378 60.9929 121.973 60.7656C121.571 60.536 121.26 60.2116 121.043 59.7926C120.825 59.3712 120.716 58.8729 120.716 58.2976C120.716 57.7365 120.825 57.2441 121.043 56.8203C121.26 56.3965 121.567 56.0663 121.962 55.8295C122.36 55.5928 122.827 55.4744 123.362 55.4744C123.721 55.4744 124.056 55.5324 124.367 55.6484C124.679 55.7621 124.951 55.9337 125.183 56.1634C125.418 56.393 125.6 56.6818 125.73 57.0298C125.86 57.3755 125.925 57.7803 125.925 58.2443V58.6598H121.32V57.7223H124.501C124.501 57.5045 124.454 57.3116 124.359 57.1435C124.265 56.9754 124.133 56.844 123.965 56.7493C123.8 56.6522 123.607 56.6037 123.386 56.6037C123.157 56.6037 122.953 56.657 122.776 56.7635C122.6 56.8677 122.463 57.0085 122.364 57.1861C122.264 57.3613 122.213 57.5566 122.211 57.772V58.6634C122.211 58.9332 122.261 59.1664 122.36 59.3629C122.462 59.5594 122.605 59.7109 122.79 59.8175C122.975 59.924 123.193 59.9773 123.447 59.9773C123.615 59.9773 123.769 59.9536 123.908 59.9062C124.048 59.8589 124.168 59.7879 124.267 59.6932C124.367 59.5985 124.442 59.4825 124.494 59.3452L125.894 59.4375C125.823 59.7737 125.677 60.0672 125.457 60.3182C125.239 60.5668 124.957 60.7609 124.612 60.9006C124.268 61.0379 123.872 61.1065 123.422 61.1065ZM128.425 57.8466V61H126.913V55.5455H128.354V56.5078H128.418C128.539 56.1906 128.742 55.9396 129.026 55.755C129.31 55.5679 129.654 55.4744 130.059 55.4744C130.438 55.4744 130.768 55.5573 131.05 55.723C131.332 55.8887 131.55 56.1255 131.707 56.4332C131.863 56.7386 131.941 57.1032 131.941 57.527V61H130.428V57.7969C130.431 57.4631 130.345 57.2027 130.173 57.0156C130 56.8262 129.762 56.7315 129.459 56.7315C129.255 56.7315 129.075 56.7753 128.919 56.8629C128.765 56.9505 128.644 57.0784 128.557 57.2464C128.472 57.4122 128.428 57.6122 128.425 57.8466ZM136.035 55.5455V56.6818H132.75V55.5455H136.035ZM133.496 54.2386H135.008V59.3239C135.008 59.4635 135.03 59.5724 135.072 59.6506C135.115 59.7263 135.174 59.7796 135.25 59.8104C135.328 59.8411 135.418 59.8565 135.52 59.8565C135.591 59.8565 135.662 59.8506 135.733 59.8388C135.804 59.8246 135.858 59.8139 135.896 59.8068L136.134 60.9325C136.058 60.9562 135.952 60.9834 135.815 61.0142C135.677 61.0473 135.51 61.0675 135.314 61.0746C134.949 61.0888 134.63 61.0402 134.355 60.929C134.083 60.8177 133.871 60.6449 133.719 60.4105C133.568 60.1761 133.493 59.8802 133.496 59.5227V54.2386ZM139.447 61.1065C138.886 61.1065 138.403 60.9929 137.998 60.7656C137.596 60.536 137.286 60.2116 137.068 59.7926C136.85 59.3712 136.741 58.8729 136.741 58.2976C136.741 57.7365 136.85 57.2441 137.068 56.8203C137.286 56.3965 137.592 56.0663 137.988 55.8295C138.386 55.5928 138.852 55.4744 139.387 55.4744C139.747 55.4744 140.082 55.5324 140.392 55.6484C140.704 55.7621 140.977 55.9337 141.209 56.1634C141.443 56.393 141.625 56.6818 141.756 57.0298C141.886 57.3755 141.951 57.7803 141.951 58.2443V58.6598H137.345V57.7223H140.527C140.527 57.5045 140.48 57.3116 140.385 57.1435C140.29 56.9754 140.159 56.844 139.991 56.7493C139.825 56.6522 139.632 56.6037 139.412 56.6037C139.182 56.6037 138.979 56.657 138.801 56.7635C138.626 56.8677 138.489 57.0085 138.389 57.1861C138.29 57.3613 138.239 57.5566 138.236 57.772V58.6634C138.236 58.9332 138.286 59.1664 138.386 59.3629C138.487 59.5594 138.631 59.7109 138.815 59.8175C139 59.924 139.219 59.9773 139.472 59.9773C139.64 59.9773 139.794 59.9536 139.934 59.9062C140.074 59.8589 140.193 59.7879 140.293 59.6932C140.392 59.5985 140.468 59.4825 140.52 59.3452L141.919 59.4375C141.848 59.7737 141.702 60.0672 141.482 60.3182C141.264 60.5668 140.983 60.7609 140.637 60.9006C140.294 61.0379 139.897 61.1065 139.447 61.1065ZM144.948 61.0888C144.534 61.0888 144.159 60.9822 143.822 60.7692C143.489 60.5537 143.223 60.2377 143.027 59.821C142.833 59.402 142.736 58.8883 142.736 58.2798C142.736 57.6548 142.836 57.1352 143.038 56.7209C143.239 56.3042 143.506 55.9929 143.84 55.7869C144.176 55.5786 144.544 55.4744 144.944 55.4744C145.25 55.4744 145.504 55.5265 145.708 55.6307C145.914 55.7325 146.08 55.8603 146.205 56.0142C146.333 56.1657 146.43 56.3149 146.496 56.4616H146.543V53.7273H148.052V61H146.56V60.1264H146.496C146.425 60.2779 146.325 60.4283 146.194 60.5774C146.067 60.7242 145.9 60.8461 145.694 60.9432C145.49 61.0402 145.242 61.0888 144.948 61.0888ZM145.427 59.8849C145.671 59.8849 145.877 59.8187 146.045 59.6861C146.216 59.5511 146.346 59.3629 146.436 59.1214C146.528 58.88 146.574 58.5971 146.574 58.2727C146.574 57.9484 146.529 57.6667 146.44 57.4276C146.35 57.1884 146.219 57.0038 146.049 56.8736C145.878 56.7434 145.671 56.6783 145.427 56.6783C145.179 56.6783 144.969 56.7457 144.799 56.8807C144.628 57.0156 144.499 57.2027 144.412 57.4418C144.324 57.6809 144.28 57.9579 144.28 58.2727C144.28 58.59 144.324 58.8705 144.412 59.1143C144.502 59.3558 144.631 59.5452 144.799 59.6825C144.969 59.8175 145.179 59.8849 145.427 59.8849ZM151.638 61V53.7273H154.508C155.057 53.7273 155.526 53.8255 155.914 54.022C156.305 54.2161 156.602 54.492 156.805 54.8494C157.011 55.2045 157.114 55.6224 157.114 56.103C157.114 56.5859 157.01 57.0014 156.802 57.3494C156.593 57.6951 156.292 57.9602 155.896 58.1449C155.503 58.3295 155.027 58.4219 154.469 58.4219H152.547V57.1861H154.22C154.514 57.1861 154.757 57.1458 154.952 57.0653C155.146 56.9848 155.29 56.8641 155.385 56.7031C155.482 56.5421 155.53 56.3421 155.53 56.103C155.53 55.8615 155.482 55.6579 155.385 55.4922C155.29 55.3265 155.145 55.201 154.948 55.1158C154.754 55.0282 154.509 54.9844 154.213 54.9844H153.176V61H151.638ZM155.566 57.6903L157.373 61H155.676L153.908 57.6903H155.566ZM160.57 61.1065C160.009 61.1065 159.526 60.9929 159.122 60.7656C158.719 60.536 158.409 60.2116 158.191 59.7926C157.973 59.3712 157.864 58.8729 157.864 58.2976C157.864 57.7365 157.973 57.2441 158.191 56.8203C158.409 56.3965 158.716 56.0663 159.111 55.8295C159.509 55.5928 159.975 55.4744 160.51 55.4744C160.87 55.4744 161.205 55.5324 161.515 55.6484C161.827 55.7621 162.1 55.9337 162.332 56.1634C162.566 56.393 162.748 56.6818 162.879 57.0298C163.009 57.3755 163.074 57.7803 163.074 58.2443V58.6598H158.468V57.7223H161.65C161.65 57.5045 161.603 57.3116 161.508 57.1435C161.413 56.9754 161.282 56.844 161.114 56.7493C160.948 56.6522 160.755 56.6037 160.535 56.6037C160.305 56.6037 160.102 56.657 159.924 56.7635C159.749 56.8677 159.612 57.0085 159.512 57.1861C159.413 57.3613 159.362 57.5566 159.359 57.772V58.6634C159.359 58.9332 159.409 59.1664 159.509 59.3629C159.61 59.5594 159.754 59.7109 159.938 59.8175C160.123 59.924 160.342 59.9773 160.595 59.9773C160.763 59.9773 160.917 59.9536 161.057 59.9062C161.197 59.8589 161.316 59.7879 161.416 59.6932C161.515 59.5985 161.591 59.4825 161.643 59.3452L163.042 59.4375C162.971 59.7737 162.825 60.0672 162.605 60.3182C162.387 60.5668 162.106 60.7609 161.76 60.9006C161.417 61.0379 161.02 61.1065 160.57 61.1065ZM165.617 61.103C165.269 61.103 164.958 61.0426 164.686 60.9219C164.414 60.7988 164.198 60.6177 164.04 60.3786C163.884 60.1371 163.805 59.8364 163.805 59.4766C163.805 59.1735 163.861 58.919 163.972 58.7131C164.084 58.5071 164.235 58.3414 164.427 58.2159C164.619 58.0904 164.836 57.9957 165.08 57.9318C165.327 57.8679 165.585 57.8229 165.854 57.7969C166.172 57.7637 166.427 57.733 166.622 57.7045C166.816 57.6738 166.957 57.6288 167.044 57.5696C167.132 57.5104 167.175 57.4228 167.175 57.3068V57.2855C167.175 57.0606 167.104 56.8866 166.962 56.7635C166.823 56.6404 166.624 56.5788 166.366 56.5788C166.094 56.5788 165.877 56.6392 165.716 56.7599C165.555 56.8783 165.448 57.0275 165.396 57.2074L163.997 57.0938C164.068 56.7623 164.208 56.4759 164.416 56.2344C164.625 55.9905 164.893 55.8035 165.222 55.6733C165.554 55.5407 165.937 55.4744 166.373 55.4744C166.676 55.4744 166.966 55.5099 167.243 55.581C167.522 55.652 167.77 55.7621 167.985 55.9112C168.203 56.0604 168.375 56.2521 168.5 56.4865C168.626 56.7185 168.688 56.9967 168.688 57.321V61H167.254V60.2436H167.211C167.123 60.4141 167.006 60.5644 166.859 60.6946C166.713 60.8224 166.536 60.9231 166.33 60.9964C166.124 61.0675 165.886 61.103 165.617 61.103ZM166.05 60.0589C166.272 60.0589 166.469 60.0152 166.639 59.9276C166.81 59.8376 166.943 59.7169 167.041 59.5653C167.138 59.4138 167.186 59.2422 167.186 59.0504V58.4716C167.139 58.5024 167.074 58.5308 166.991 58.5568C166.91 58.5805 166.819 58.603 166.717 58.6243C166.616 58.6432 166.514 58.661 166.412 58.6776C166.31 58.6918 166.218 58.7048 166.135 58.7166C165.957 58.7427 165.802 58.7841 165.67 58.8409C165.537 58.8977 165.434 58.9747 165.361 59.0717C165.287 59.1664 165.251 59.2848 165.251 59.4268C165.251 59.6328 165.325 59.7902 165.475 59.8991C165.626 60.0057 165.818 60.0589 166.05 60.0589ZM171.375 53.7273V61H169.862V53.7273H171.375ZM172.587 61V55.5455H174.099V61H172.587ZM173.346 54.8423C173.122 54.8423 172.929 54.7678 172.768 54.6186C172.609 54.4671 172.53 54.286 172.53 54.0753C172.53 53.867 172.609 53.6882 172.768 53.5391C172.929 53.3875 173.122 53.3118 173.346 53.3118C173.571 53.3118 173.763 53.3875 173.922 53.5391C174.083 53.6882 174.163 53.867 174.163 54.0753C174.163 54.286 174.083 54.4671 173.922 54.6186C173.763 54.7678 173.571 54.8423 173.346 54.8423ZM178.212 55.5455V56.6818H174.928V55.5455H178.212ZM175.673 54.2386H177.186V59.3239C177.186 59.4635 177.207 59.5724 177.25 59.6506C177.293 59.7263 177.352 59.7796 177.428 59.8104C177.506 59.8411 177.596 59.8565 177.698 59.8565C177.769 59.8565 177.84 59.8506 177.911 59.8388C177.982 59.8246 178.036 59.8139 178.074 59.8068L178.312 60.9325C178.236 60.9562 178.13 60.9834 177.992 61.0142C177.855 61.0473 177.688 61.0675 177.492 61.0746C177.127 61.0888 176.807 61.0402 176.533 60.929C176.26 60.8177 176.049 60.6449 175.897 60.4105C175.746 60.1761 175.671 59.8802 175.673 59.5227V54.2386ZM180.132 63.0455C179.94 63.0455 179.76 63.0301 179.592 62.9993C179.426 62.9709 179.289 62.9342 179.18 62.8892L179.521 61.7599C179.699 61.8144 179.858 61.844 180 61.8487C180.145 61.8535 180.269 61.8203 180.373 61.7493C180.48 61.6783 180.566 61.5575 180.633 61.3871L180.721 61.1562L178.765 55.5455H180.356L181.485 59.5511H181.542L182.682 55.5455H184.283L182.163 61.5895C182.061 61.883 181.923 62.1387 181.748 62.3565C181.575 62.5767 181.356 62.746 181.091 62.8643C180.825 62.9851 180.506 63.0455 180.132 63.0455Z" fill="#F19601"/>
</svg>
