<svg width="512" height="512" viewBox="0 0 512 512" fill="none" xmlns="http://www.w3.org/2000/svg">
  <path fill-rule="evenodd" clip-rule="evenodd"
    d="M25 0H175.75V50H50V175.75H0V25C0 11.1929 11.1929 0 25 0ZM0 336.25V487C0 500.807 11.1929 512 25 512H175.75V462H50V336.25H0ZM462 336.25V462H336.25V512H487C500.807 512 512 500.807 512 487V336.25H462ZM512 175.75V25C512 11.1929 500.807 0 487 0H336.25V50H462V175.75H512Z"
    fill="#F19601" />
  <path
    d="M118.57 423.03C84.4207 247.35 164.669 175.405 315.359 88.4014C223.86 217.333 244.144 291.396 261.582 423.03H118.57Z"
    fill="#FFC700" />
  <path
    d="M301.262 423.03C268.821 250.696 282.496 205.622 315.359 129.479C315.359 242.691 325.816 314.827 402 423.03H301.262Z"
    fill="#FFC700" />
  <path
    d="M313.864 89.4033C244.436 192.199 230.736 263.887 262.447 423.03H197.347C168.408 291.524 186.736 206.759 313.864 89.4033Z"
    fill="#F19601" />
</svg>