<svg width="535" height="120" viewBox="0 0 535 120" fill="none" xmlns="http://www.w3.org/2000/svg">
<path fill-rule="evenodd" clip-rule="evenodd" d="M0 93.3333L22.2917 77.7778C44.5833 62.2222 89.1667 31.1111 133.75 20C178.333 8.88889 222.917 17.7778 267.5 33.3333C312.083 48.8889 356.667 71.1111 401.25 66.6667C445.833 62.2222 490.417 31.1111 512.708 15.5556L535 0V120H512.708C490.417 120 445.833 120 401.25 120C356.667 120 312.083 120 267.5 120C222.917 120 178.333 120 133.75 120C89.1667 120 44.5833 120 22.2917 120H0V93.3333Z" fill="#FFA800" fill-opacity="0.7"/>
</svg>
