<svg width="535" height="100" viewBox="0 0 535 100" fill="none" xmlns="http://www.w3.org/2000/svg">
<path fill-rule="evenodd" clip-rule="evenodd" d="M0 61.5385L12.9292 46.1538C25.4125 30.7692 50.825 0 76.2375 0C102.096 0 127.508 30.7692 152.921 38.4615C178.333 46.1538 229.158 34.6154 229.158 34.6154C229.158 34.6154 264.211 20.9509 305.842 46.1538C331.254 61.5385 356.667 69.2308 382.079 69.2308C407.492 69.2308 432.904 61.5385 458.762 65.3846C484.175 69.2308 509.587 84.6154 522.071 92.3077L535 100H522.071C509.587 100 484.175 100 458.762 100C432.904 100 407.492 100 382.079 100C356.667 100 331.254 100 305.842 100C280.429 100 254.571 100 229.158 100C203.746 100 178.333 100 152.921 100C127.508 100 102.096 100 76.2375 100C50.825 100 25.4125 100 12.9292 100H0L0 61.5385Z" fill="#FFE791"/>
</svg>
