<svg width="535" height="100" viewBox="0 0 535 100" fill="none" xmlns="http://www.w3.org/2000/svg">
<path fill-rule="evenodd" clip-rule="evenodd" d="M0 73.7667C0 73.7667 9.86443 64.7386 16.8275 58.9841C23.7907 53.2295 42.6975 29.8276 64.9892 54.6681C87.2808 79.5087 103.045 86.187 125.336 73.7667C147.628 61.3464 178.333 48.9261 200.625 48.9261C222.917 48.9261 245.208 82.0469 267.5 82.0469C289.792 82.0469 312.083 48.9261 334.375 48.9261C356.667 48.9261 378.958 82.0469 401.25 73.7667C423.542 65.4865 445.833 15.8053 468.125 3.38505C490.417 -9.03523 512.708 15.8053 523.854 28.2256L535 40.6459V100H523.854C512.708 100 490.417 100 468.125 100C445.833 100 423.542 100 401.25 100C378.958 100 356.667 100 334.375 100C312.083 100 289.792 100 267.5 100C245.208 100 222.917 100 200.625 100C178.333 100 156.042 100 133.75 100C111.458 100 89.1667 100 66.875 100C44.5833 100 22.2917 100 11.1458 100H0V73.7667Z" fill="#FFF48F"/>
</svg>
