<svg width="535" height="100" viewBox="0 0 535 100" fill="none" xmlns="http://www.w3.org/2000/svg">
<path fill-rule="evenodd" clip-rule="evenodd" d="M0 92.7203L22.2917 77.2669C44.5833 61.8135 89.1667 30.9068 133.75 19.8686C178.333 8.83051 222.917 17.661 267.5 33.1144C312.083 48.5678 356.667 70.644 401.25 66.2288C445.833 61.8135 490.417 30.9068 512.708 15.4534L535 0V100H512.708C490.417 100 445.833 100 401.25 100C356.667 100 312.083 100 267.5 100C222.917 100 178.333 100 133.75 100C89.1667 100 44.5833 100 22.2917 100H0V92.7203Z" fill="#FCD280"/>
</svg>
