<svg width="535" height="291" viewBox="0 0 535 291" fill="none" xmlns="http://www.w3.org/2000/svg">
<path fill-rule="evenodd" clip-rule="evenodd" d="M0 53.4808C0 53.4808 9.86442 46.9355 16.8275 42.7634C23.7907 38.5914 42.6975 21.625 64.9892 39.6344C87.2808 57.6438 103.045 62.4856 125.336 53.4808C147.628 44.4761 178.333 35.4714 200.625 35.4714C222.917 35.4714 245.208 59.484 267.5 59.484C289.792 59.484 312.083 35.4714 334.375 35.4714C356.667 35.4714 378.958 59.484 401.25 53.4808C423.542 47.4777 445.833 11.4589 468.125 2.45416C490.417 -6.55054 512.708 11.4589 523.854 20.4636L535 29.4683V291H523.854C512.708 291 490.417 291 468.125 291C445.833 291 423.542 291 401.25 291C378.958 291 356.667 291 334.375 291C312.083 291 289.792 291 267.5 291C245.208 291 222.917 291 200.625 291C178.333 291 156.042 291 133.75 291C111.458 291 89.1667 291 66.875 291C44.5833 291 22.2917 291 11.1458 291H0V53.4808Z" fill="#FFE600" fill-opacity="0.7"/>
</svg>
