<svg width="535" height="187" viewBox="0 0 535 187" fill="none" xmlns="http://www.w3.org/2000/svg">
<path fill-rule="evenodd" clip-rule="evenodd" d="M0 57.5385L12.9292 43.1538C25.4125 28.7692 50.825 0 76.2375 0C102.096 0 127.508 28.7692 152.921 35.9615C178.333 43.1538 229.158 32.3654 229.158 32.3654C229.158 32.3654 264.211 19.5891 305.842 43.1538C331.254 57.5385 356.667 64.7308 382.079 64.7308C407.492 64.7308 432.904 57.5385 458.762 61.1346C484.175 64.7308 509.587 79.1154 522.071 86.3077L535 93.5V187H522.071C509.587 187 484.175 187 458.762 187C432.904 187 407.492 187 382.079 187C356.667 187 331.254 187 305.842 187C280.429 187 254.571 187 229.158 187C203.746 187 178.333 187 152.921 187C127.508 187 102.096 187 76.2375 187C50.825 187 25.4125 187 12.9292 187H0V57.5385Z" fill="#FFC700" fill-opacity="0.7"/>
</svg>
